<mxfile modified="2021-07-21T15:10:29.745Z" host="app.diagrams.net" agent="5.0 (Windows NT 10.0; Win64; x64) AppleWebKit/537.36 (KHTML, like Gecko) Chrome/91.0.4472.164 Safari/537.36" etag="TPNa8qWCPnsb20ffNdI7" version="14.9.1" type="github">
  <diagram id="Ht1M8jgEwFfnCIfOTk4-" name="Page-1">
    <mxGraphModel dx="1422" dy="1593" grid="1" gridSize="10" guides="1" tooltips="1" connect="1" arrows="1" fold="1" page="1" pageScale="1" pageWidth="1169" pageHeight="827" math="0" shadow="0">
      <root>
        <mxCell id="0" />
        <mxCell id="1" parent="0" />
        <mxCell id="oc2KEHiFoT-k8S5DnZOh-53" value="Clients" style="rounded=0;whiteSpace=wrap;html=1;labelPosition=center;verticalLabelPosition=bottom;align=center;verticalAlign=top;" vertex="1" parent="1">
          <mxGeometry x="855" y="-132" width="150" height="113" as="geometry" />
        </mxCell>
        <mxCell id="oc2KEHiFoT-k8S5DnZOh-27" value="" style="whiteSpace=wrap;html=1;shape=mxgraph.basic.cloud_rect" vertex="1" parent="1">
          <mxGeometry x="470" y="-740" width="670" height="580" as="geometry" />
        </mxCell>
        <mxCell id="oc2KEHiFoT-k8S5DnZOh-9" value="" style="rounded=0;whiteSpace=wrap;html=1;dashed=1;labelBackgroundColor=#ffffff;fillColor=none;gradientColor=none;" vertex="1" parent="1">
          <mxGeometry x="20" y="-764" width="370" height="351" as="geometry" />
        </mxCell>
        <mxCell id="oc2KEHiFoT-k8S5DnZOh-19" value="" style="rounded=0;whiteSpace=wrap;html=1;dashed=1;labelBackgroundColor=#ffffff;fillColor=none;gradientColor=none;" vertex="1" parent="1">
          <mxGeometry x="20" y="-370" width="370" height="351" as="geometry" />
        </mxCell>
        <mxCell id="UEzPUAAOIrF-is8g5C7q-172" style="edgeStyle=orthogonalEdgeStyle;rounded=0;orthogonalLoop=1;jettySize=auto;html=1;startArrow=none;startFill=0;endArrow=open;endFill=0;strokeColor=#808080;strokeWidth=2;" parent="1" edge="1">
          <mxGeometry relative="1" as="geometry">
            <Array as="points">
              <mxPoint x="230" y="-646" />
              <mxPoint x="230" y="-589" />
            </Array>
            <mxPoint x="131" y="-646" as="sourcePoint" />
            <mxPoint x="288.5" y="-589" as="targetPoint" />
          </mxGeometry>
        </mxCell>
        <mxCell id="UEzPUAAOIrF-is8g5C7q-173" style="edgeStyle=orthogonalEdgeStyle;rounded=0;orthogonalLoop=1;jettySize=auto;html=1;startArrow=none;startFill=0;endArrow=open;endFill=0;strokeColor=#808080;strokeWidth=2;" parent="1" edge="1">
          <mxGeometry relative="1" as="geometry">
            <Array as="points">
              <mxPoint x="230" y="-538" />
              <mxPoint x="230" y="-589" />
            </Array>
            <mxPoint x="131" y="-538" as="sourcePoint" />
            <mxPoint x="288.5" y="-589" as="targetPoint" />
          </mxGeometry>
        </mxCell>
        <mxCell id="oc2KEHiFoT-k8S5DnZOh-8" value="Plublish to topics" style="edgeLabel;html=1;align=center;verticalAlign=middle;resizable=0;points=[];" vertex="1" connectable="0" parent="UEzPUAAOIrF-is8g5C7q-173">
          <mxGeometry x="0.6019" y="1" relative="1" as="geometry">
            <mxPoint x="-11" y="17" as="offset" />
          </mxGeometry>
        </mxCell>
        <mxCell id="UEzPUAAOIrF-is8g5C7q-155" value="" style="rounded=0;whiteSpace=wrap;html=1;dashed=1;labelBackgroundColor=#ffffff;fillColor=none;gradientColor=none;" parent="1" vertex="1">
          <mxGeometry x="40" y="-747" width="146" height="310" as="geometry" />
        </mxCell>
        <mxCell id="oc2KEHiFoT-k8S5DnZOh-1" value="Valve" style="outlineConnect=0;dashed=0;verticalLabelPosition=bottom;verticalAlign=top;align=center;html=1;shape=mxgraph.aws3.mqtt_protocol;fillColor=#5294CF;gradientColor=none;" vertex="1" parent="1">
          <mxGeometry x="76" y="-683" width="63" height="66" as="geometry" />
        </mxCell>
        <mxCell id="oc2KEHiFoT-k8S5DnZOh-2" value="MQTT Broker" style="outlineConnect=0;dashed=0;verticalLabelPosition=bottom;verticalAlign=top;align=center;html=1;shape=mxgraph.aws3.sensor;fillColor=#5294CF;gradientColor=none;" vertex="1" parent="1">
          <mxGeometry x="290" y="-633.5" width="76.5" height="90" as="geometry" />
        </mxCell>
        <mxCell id="oc2KEHiFoT-k8S5DnZOh-3" value="Valve" style="outlineConnect=0;dashed=0;verticalLabelPosition=bottom;verticalAlign=top;align=center;html=1;shape=mxgraph.aws3.mqtt_protocol;fillColor=#5294CF;gradientColor=none;" vertex="1" parent="1">
          <mxGeometry x="76" y="-573" width="63" height="66" as="geometry" />
        </mxCell>
        <mxCell id="oc2KEHiFoT-k8S5DnZOh-10" value="Location 1" style="text;html=1;align=center;verticalAlign=middle;resizable=0;points=[];autosize=1;strokeColor=none;" vertex="1" parent="1">
          <mxGeometry x="160" y="-784" width="70" height="20" as="geometry" />
        </mxCell>
        <mxCell id="oc2KEHiFoT-k8S5DnZOh-11" value="Cloud IoT" style="outlineConnect=0;dashed=0;verticalLabelPosition=bottom;verticalAlign=top;align=center;html=1;shape=mxgraph.aws3.aws_iot;fillColor=#5294CF;gradientColor=none;" vertex="1" parent="1">
          <mxGeometry x="548.5" y="-637" width="67.5" height="81" as="geometry" />
        </mxCell>
        <mxCell id="oc2KEHiFoT-k8S5DnZOh-12" style="edgeStyle=orthogonalEdgeStyle;rounded=0;orthogonalLoop=1;jettySize=auto;html=1;startArrow=none;startFill=0;endArrow=open;endFill=0;strokeColor=#808080;strokeWidth=2;" edge="1" parent="1">
          <mxGeometry relative="1" as="geometry">
            <Array as="points">
              <mxPoint x="230" y="-252" />
              <mxPoint x="230" y="-195" />
            </Array>
            <mxPoint x="131" y="-252" as="sourcePoint" />
            <mxPoint x="288.5" y="-195" as="targetPoint" />
          </mxGeometry>
        </mxCell>
        <mxCell id="oc2KEHiFoT-k8S5DnZOh-13" style="edgeStyle=orthogonalEdgeStyle;rounded=0;orthogonalLoop=1;jettySize=auto;html=1;startArrow=none;startFill=0;endArrow=open;endFill=0;strokeColor=#808080;strokeWidth=2;" edge="1" parent="1">
          <mxGeometry relative="1" as="geometry">
            <Array as="points">
              <mxPoint x="230" y="-144" />
              <mxPoint x="230" y="-195" />
            </Array>
            <mxPoint x="131" y="-144" as="sourcePoint" />
            <mxPoint x="288.5" y="-195" as="targetPoint" />
          </mxGeometry>
        </mxCell>
        <mxCell id="oc2KEHiFoT-k8S5DnZOh-14" value="Plublish to topics" style="edgeLabel;html=1;align=center;verticalAlign=middle;resizable=0;points=[];" vertex="1" connectable="0" parent="oc2KEHiFoT-k8S5DnZOh-13">
          <mxGeometry x="0.6019" y="1" relative="1" as="geometry">
            <mxPoint x="-11" y="17" as="offset" />
          </mxGeometry>
        </mxCell>
        <mxCell id="oc2KEHiFoT-k8S5DnZOh-15" value="" style="rounded=0;whiteSpace=wrap;html=1;dashed=1;labelBackgroundColor=#ffffff;fillColor=none;gradientColor=none;" vertex="1" parent="1">
          <mxGeometry x="40" y="-353" width="146" height="310" as="geometry" />
        </mxCell>
        <mxCell id="oc2KEHiFoT-k8S5DnZOh-16" value="Valve" style="outlineConnect=0;dashed=0;verticalLabelPosition=bottom;verticalAlign=top;align=center;html=1;shape=mxgraph.aws3.mqtt_protocol;fillColor=#5294CF;gradientColor=none;" vertex="1" parent="1">
          <mxGeometry x="76" y="-289" width="63" height="66" as="geometry" />
        </mxCell>
        <mxCell id="oc2KEHiFoT-k8S5DnZOh-17" value="MQTT Broker" style="outlineConnect=0;dashed=0;verticalLabelPosition=bottom;verticalAlign=top;align=center;html=1;shape=mxgraph.aws3.sensor;fillColor=#5294CF;gradientColor=none;" vertex="1" parent="1">
          <mxGeometry x="290" y="-243" width="76.5" height="90" as="geometry" />
        </mxCell>
        <mxCell id="oc2KEHiFoT-k8S5DnZOh-18" value="Valve" style="outlineConnect=0;dashed=0;verticalLabelPosition=bottom;verticalAlign=top;align=center;html=1;shape=mxgraph.aws3.mqtt_protocol;fillColor=#5294CF;gradientColor=none;" vertex="1" parent="1">
          <mxGeometry x="76" y="-179" width="63" height="66" as="geometry" />
        </mxCell>
        <mxCell id="oc2KEHiFoT-k8S5DnZOh-20" value="Location 2" style="text;html=1;align=center;verticalAlign=middle;resizable=0;points=[];autosize=1;strokeColor=none;" vertex="1" parent="1">
          <mxGeometry x="160" y="-390" width="70" height="20" as="geometry" />
        </mxCell>
        <mxCell id="oc2KEHiFoT-k8S5DnZOh-22" style="edgeStyle=orthogonalEdgeStyle;rounded=0;orthogonalLoop=1;jettySize=auto;html=1;startArrow=none;startFill=0;endArrow=open;endFill=0;strokeColor=#808080;strokeWidth=2;entryX=0;entryY=0.5;entryDx=0;entryDy=0;entryPerimeter=0;" edge="1" parent="1" target="oc2KEHiFoT-k8S5DnZOh-11">
          <mxGeometry relative="1" as="geometry">
            <Array as="points">
              <mxPoint x="430" y="-209" />
              <mxPoint x="430" y="-596" />
            </Array>
            <mxPoint x="366.5" y="-209" as="sourcePoint" />
            <mxPoint x="540" y="-420" as="targetPoint" />
          </mxGeometry>
        </mxCell>
        <mxCell id="oc2KEHiFoT-k8S5DnZOh-23" value="Publish topics to cloud" style="edgeLabel;html=1;align=center;verticalAlign=middle;resizable=0;points=[];" vertex="1" connectable="0" parent="oc2KEHiFoT-k8S5DnZOh-22">
          <mxGeometry x="0.6019" y="1" relative="1" as="geometry">
            <mxPoint x="40" y="31" as="offset" />
          </mxGeometry>
        </mxCell>
        <mxCell id="oc2KEHiFoT-k8S5DnZOh-28" value="Subscriber Rule" style="outlineConnect=0;dashed=0;verticalLabelPosition=top;verticalAlign=bottom;align=center;html=1;shape=mxgraph.aws3.rule;fillColor=#5294CF;gradientColor=none;flipV=0;labelPosition=center;" vertex="1" parent="1">
          <mxGeometry x="700" y="-643" width="49.5" height="99" as="geometry" />
        </mxCell>
        <mxCell id="oc2KEHiFoT-k8S5DnZOh-29" value="" style="outlineConnect=0;dashed=0;verticalLabelPosition=bottom;verticalAlign=top;align=center;html=1;shape=mxgraph.aws3.cloudwatch;fillColor=#759C3E;gradientColor=none;" vertex="1" parent="1">
          <mxGeometry x="533.5" y="-424" width="82.5" height="93" as="geometry" />
        </mxCell>
        <mxCell id="oc2KEHiFoT-k8S5DnZOh-31" style="edgeStyle=orthogonalEdgeStyle;rounded=0;orthogonalLoop=1;jettySize=auto;html=1;startArrow=none;startFill=0;endArrow=open;endFill=0;strokeColor=#808080;strokeWidth=2;exitX=0.5;exitY=1;exitDx=0;exitDy=0;exitPerimeter=0;" edge="1" parent="1" source="oc2KEHiFoT-k8S5DnZOh-28" target="oc2KEHiFoT-k8S5DnZOh-29">
          <mxGeometry relative="1" as="geometry">
            <Array as="points">
              <mxPoint x="725" y="-494" />
              <mxPoint x="574" y="-494" />
            </Array>
            <mxPoint x="719.5" y="-294.5" as="sourcePoint" />
            <mxPoint x="877" y="-345.5" as="targetPoint" />
          </mxGeometry>
        </mxCell>
        <mxCell id="oc2KEHiFoT-k8S5DnZOh-32" value="Alert to Metrics" style="edgeLabel;html=1;align=center;verticalAlign=middle;resizable=0;points=[];" vertex="1" connectable="0" parent="oc2KEHiFoT-k8S5DnZOh-31">
          <mxGeometry x="0.6019" y="1" relative="1" as="geometry">
            <mxPoint x="-11" y="17" as="offset" />
          </mxGeometry>
        </mxCell>
        <mxCell id="oc2KEHiFoT-k8S5DnZOh-33" style="edgeStyle=orthogonalEdgeStyle;rounded=0;orthogonalLoop=1;jettySize=auto;html=1;startArrow=none;startFill=0;endArrow=open;endFill=0;strokeColor=#808080;strokeWidth=2;" edge="1" parent="1" target="oc2KEHiFoT-k8S5DnZOh-28">
          <mxGeometry relative="1" as="geometry">
            <Array as="points" />
            <mxPoint x="615.5" y="-593" as="sourcePoint" />
            <mxPoint x="773" y="-644" as="targetPoint" />
          </mxGeometry>
        </mxCell>
        <mxCell id="oc2KEHiFoT-k8S5DnZOh-34" value="Monitor topics" style="edgeLabel;html=1;align=center;verticalAlign=middle;resizable=0;points=[];" vertex="1" connectable="0" parent="oc2KEHiFoT-k8S5DnZOh-33">
          <mxGeometry x="0.6019" y="1" relative="1" as="geometry">
            <mxPoint x="-19" y="17" as="offset" />
          </mxGeometry>
        </mxCell>
        <mxCell id="oc2KEHiFoT-k8S5DnZOh-37" value="" style="outlineConnect=0;dashed=0;verticalLabelPosition=bottom;verticalAlign=top;align=center;html=1;shape=mxgraph.aws3.dynamo_db;fillColor=#2E73B8;gradientColor=none;" vertex="1" parent="1">
          <mxGeometry x="870" y="-634" width="72" height="81" as="geometry" />
        </mxCell>
        <mxCell id="oc2KEHiFoT-k8S5DnZOh-38" style="edgeStyle=orthogonalEdgeStyle;rounded=0;orthogonalLoop=1;jettySize=auto;html=1;startArrow=none;startFill=0;endArrow=open;endFill=0;strokeColor=#808080;strokeWidth=2;entryX=0;entryY=0.5;entryDx=0;entryDy=0;entryPerimeter=0;" edge="1" parent="1" target="oc2KEHiFoT-k8S5DnZOh-37">
          <mxGeometry relative="1" as="geometry">
            <Array as="points">
              <mxPoint x="753" y="-593" />
              <mxPoint x="795" y="-593" />
            </Array>
            <mxPoint x="752.75" y="-594" as="sourcePoint" />
            <mxPoint x="837.25" y="-594.5" as="targetPoint" />
          </mxGeometry>
        </mxCell>
        <mxCell id="oc2KEHiFoT-k8S5DnZOh-39" value="Store data in timestream" style="edgeLabel;html=1;align=center;verticalAlign=middle;resizable=0;points=[];" vertex="1" connectable="0" parent="oc2KEHiFoT-k8S5DnZOh-38">
          <mxGeometry x="0.6019" y="1" relative="1" as="geometry">
            <mxPoint x="-37" y="17" as="offset" />
          </mxGeometry>
        </mxCell>
        <mxCell id="oc2KEHiFoT-k8S5DnZOh-40" value="API Gateway" style="outlineConnect=0;dashed=0;verticalLabelPosition=bottom;verticalAlign=top;align=center;html=1;shape=mxgraph.aws3.api_gateway;fillColor=#D9A741;gradientColor=none;" vertex="1" parent="1">
          <mxGeometry x="660" y="-426.5" width="76.5" height="93" as="geometry" />
        </mxCell>
        <mxCell id="oc2KEHiFoT-k8S5DnZOh-41" style="edgeStyle=orthogonalEdgeStyle;rounded=0;orthogonalLoop=1;jettySize=auto;html=1;startArrow=classic;startFill=1;endArrow=open;endFill=0;strokeColor=#808080;strokeWidth=2;exitX=0.5;exitY=0;exitDx=0;exitDy=0;exitPerimeter=0;" edge="1" parent="1" source="oc2KEHiFoT-k8S5DnZOh-40">
          <mxGeometry relative="1" as="geometry">
            <Array as="points">
              <mxPoint x="698" y="-474" />
            </Array>
            <mxPoint x="760" y="-474" as="sourcePoint" />
            <mxPoint x="1000" y="-474" as="targetPoint" />
          </mxGeometry>
        </mxCell>
        <mxCell id="oc2KEHiFoT-k8S5DnZOh-42" value="Request Data" style="edgeLabel;html=1;align=center;verticalAlign=middle;resizable=0;points=[];" vertex="1" connectable="0" parent="oc2KEHiFoT-k8S5DnZOh-41">
          <mxGeometry x="0.6019" y="1" relative="1" as="geometry">
            <mxPoint x="-37" y="17" as="offset" />
          </mxGeometry>
        </mxCell>
        <mxCell id="oc2KEHiFoT-k8S5DnZOh-44" style="edgeStyle=orthogonalEdgeStyle;rounded=0;orthogonalLoop=1;jettySize=auto;html=1;entryX=1;entryY=0.5;entryDx=0;entryDy=0;entryPerimeter=0;startArrow=classic;startFill=1;strokeColor=#808080;strokeWidth=2;" edge="1" parent="1" source="oc2KEHiFoT-k8S5DnZOh-43" target="oc2KEHiFoT-k8S5DnZOh-37">
          <mxGeometry relative="1" as="geometry">
            <Array as="points">
              <mxPoint x="1039" y="-593" />
            </Array>
          </mxGeometry>
        </mxCell>
        <mxCell id="oc2KEHiFoT-k8S5DnZOh-45" value="Query Data" style="edgeLabel;html=1;align=center;verticalAlign=middle;resizable=0;points=[];" vertex="1" connectable="0" parent="oc2KEHiFoT-k8S5DnZOh-44">
          <mxGeometry x="0.2255" y="1" relative="1" as="geometry">
            <mxPoint x="1" as="offset" />
          </mxGeometry>
        </mxCell>
        <mxCell id="oc2KEHiFoT-k8S5DnZOh-43" value="Cloud Function" style="points=[[0,0,0],[0.25,0,0],[0.5,0,0],[0.75,0,0],[1,0,0],[0,1,0],[0.25,1,0],[0.5,1,0],[0.75,1,0],[1,1,0],[0,0.25,0],[0,0.5,0],[0,0.75,0],[1,0.25,0],[1,0.5,0],[1,0.75,0]];outlineConnect=0;fontColor=#232F3E;gradientColor=#F78E04;gradientDirection=north;fillColor=#D05C17;strokeColor=#ffffff;dashed=0;verticalLabelPosition=bottom;verticalAlign=top;align=center;html=1;fontSize=12;fontStyle=0;aspect=fixed;shape=mxgraph.aws4.resourceIcon;resIcon=mxgraph.aws4.lambda;spacingLeft=11;" vertex="1" parent="1">
          <mxGeometry x="1000" y="-502" width="78" height="78" as="geometry" />
        </mxCell>
        <mxCell id="oc2KEHiFoT-k8S5DnZOh-24" style="edgeStyle=orthogonalEdgeStyle;rounded=0;orthogonalLoop=1;jettySize=auto;html=1;startArrow=none;startFill=0;endArrow=open;endFill=0;strokeColor=#808080;strokeWidth=2;exitX=1;exitY=0.43;exitDx=0;exitDy=0;exitPerimeter=0;entryX=0;entryY=0.5;entryDx=0;entryDy=0;entryPerimeter=0;" edge="1" parent="1" source="oc2KEHiFoT-k8S5DnZOh-2" target="oc2KEHiFoT-k8S5DnZOh-11">
          <mxGeometry relative="1" as="geometry">
            <Array as="points">
              <mxPoint x="367" y="-596" />
              <mxPoint x="430" y="-596" />
            </Array>
            <mxPoint x="376.5" y="-199" as="sourcePoint" />
            <mxPoint x="540" y="-419" as="targetPoint" />
          </mxGeometry>
        </mxCell>
        <mxCell id="oc2KEHiFoT-k8S5DnZOh-48" style="edgeStyle=orthogonalEdgeStyle;rounded=0;orthogonalLoop=1;jettySize=auto;html=1;startArrow=classic;startFill=1;endArrow=open;endFill=0;strokeColor=#808080;strokeWidth=2;exitX=0.65;exitY=0.5;exitDx=0;exitDy=0;exitPerimeter=0;entryX=0.5;entryY=0;entryDx=0;entryDy=0;" edge="1" parent="1" source="oc2KEHiFoT-k8S5DnZOh-40" target="oc2KEHiFoT-k8S5DnZOh-47">
          <mxGeometry relative="1" as="geometry">
            <Array as="points">
              <mxPoint x="800" y="-380" />
            </Array>
            <mxPoint x="790" y="-356.25" as="sourcePoint" />
            <mxPoint x="1091.75" y="-403.75" as="targetPoint" />
          </mxGeometry>
        </mxCell>
        <mxCell id="oc2KEHiFoT-k8S5DnZOh-49" value="Request Data" style="edgeLabel;html=1;align=left;verticalAlign=bottom;resizable=0;points=[];labelPosition=right;verticalLabelPosition=top;" vertex="1" connectable="0" parent="oc2KEHiFoT-k8S5DnZOh-48">
          <mxGeometry x="0.6019" y="1" relative="1" as="geometry">
            <mxPoint x="-37" y="17" as="offset" />
          </mxGeometry>
        </mxCell>
        <mxCell id="oc2KEHiFoT-k8S5DnZOh-51" value="" style="points=[[0.015,0.015,0],[0.985,0.015,0],[0.985,0.985,0],[0.015,0.985,0],[0.25,0,0],[0.5,0,0],[0.75,0,0],[1,0.25,0],[1,0.5,0],[1,0.75,0],[0.75,1,0],[0.5,1,0],[0.25,1,0],[0,0.75,0],[0,0.5,0],[0,0.25,0]];verticalLabelPosition=bottom;html=1;verticalAlign=top;aspect=fixed;align=center;pointerEvents=1;shape=mxgraph.cisco19.cell_phone;fillColor=#005073;strokeColor=none;" vertex="1" parent="1">
          <mxGeometry x="889.5" y="-103" width="25" height="50" as="geometry" />
        </mxCell>
        <mxCell id="oc2KEHiFoT-k8S5DnZOh-52" value="" style="aspect=fixed;pointerEvents=1;shadow=0;dashed=0;html=1;strokeColor=none;labelPosition=center;verticalLabelPosition=bottom;verticalAlign=top;align=center;fillColor=#00188D;shape=mxgraph.azure.computer" vertex="1" parent="1">
          <mxGeometry x="925" y="-98" width="50" height="45" as="geometry" />
        </mxCell>
        <mxCell id="oc2KEHiFoT-k8S5DnZOh-54" style="edgeStyle=orthogonalEdgeStyle;rounded=0;orthogonalLoop=1;jettySize=auto;html=1;startArrow=classic;startFill=1;endArrow=open;endFill=0;strokeColor=#808080;strokeWidth=2;exitX=0.5;exitY=1;exitDx=0;exitDy=0;entryX=0.5;entryY=0;entryDx=0;entryDy=0;" edge="1" parent="1" source="oc2KEHiFoT-k8S5DnZOh-47" target="oc2KEHiFoT-k8S5DnZOh-53">
          <mxGeometry relative="1" as="geometry">
            <Array as="points">
              <mxPoint x="800" y="-210" />
              <mxPoint x="930" y="-210" />
            </Array>
            <mxPoint x="590.0049999999999" y="-153" as="sourcePoint" />
            <mxPoint x="780.28" y="-153" as="targetPoint" />
          </mxGeometry>
        </mxCell>
        <mxCell id="oc2KEHiFoT-k8S5DnZOh-60" value="External Product" style="pointerEvents=1;shadow=0;dashed=0;html=1;strokeColor=none;fillColor=#434445;aspect=fixed;labelPosition=center;verticalLabelPosition=bottom;verticalAlign=top;align=center;outlineConnect=0;shape=mxgraph.vvd.nsx_dashboard;fontSize=13;" vertex="1" parent="1">
          <mxGeometry x="660" y="-103" width="50" height="46.5" as="geometry" />
        </mxCell>
        <mxCell id="oc2KEHiFoT-k8S5DnZOh-61" style="edgeStyle=orthogonalEdgeStyle;rounded=0;orthogonalLoop=1;jettySize=auto;html=1;startArrow=classic;startFill=1;endArrow=open;endFill=0;strokeColor=#808080;strokeWidth=2;" edge="1" parent="1" source="oc2KEHiFoT-k8S5DnZOh-40" target="oc2KEHiFoT-k8S5DnZOh-60">
          <mxGeometry relative="1" as="geometry">
            <Array as="points">
              <mxPoint x="630" y="-380" />
              <mxPoint x="630" y="-220" />
            </Array>
            <mxPoint x="630" y="-274.5" as="sourcePoint" />
            <mxPoint x="630" y="-179" as="targetPoint" />
          </mxGeometry>
        </mxCell>
        <mxCell id="oc2KEHiFoT-k8S5DnZOh-63" value="API requests" style="edgeLabel;html=1;align=center;verticalAlign=middle;resizable=0;points=[];fontSize=13;" vertex="1" connectable="0" parent="oc2KEHiFoT-k8S5DnZOh-61">
          <mxGeometry x="0.168" y="2" relative="1" as="geometry">
            <mxPoint as="offset" />
          </mxGeometry>
        </mxCell>
        <mxCell id="oc2KEHiFoT-k8S5DnZOh-64" style="edgeStyle=orthogonalEdgeStyle;rounded=0;orthogonalLoop=1;jettySize=auto;html=1;startArrow=classic;startFill=1;endArrow=open;endFill=0;strokeColor=#808080;strokeWidth=2;entryX=0;entryY=0.5;entryDx=0;entryDy=0;" edge="1" parent="1" source="oc2KEHiFoT-k8S5DnZOh-60" target="oc2KEHiFoT-k8S5DnZOh-53">
          <mxGeometry relative="1" as="geometry">
            <Array as="points">
              <mxPoint x="855" y="-75.5" />
              <mxPoint x="855" y="-75.5" />
            </Array>
            <mxPoint x="800" y="-87.5" as="sourcePoint" />
            <mxPoint x="800" y="72.5" as="targetPoint" />
          </mxGeometry>
        </mxCell>
        <mxCell id="oc2KEHiFoT-k8S5DnZOh-47" value="" style="aspect=fixed;perimeter=ellipsePerimeter;html=1;align=center;shadow=0;dashed=0;fontColor=#4277BB;labelBackgroundColor=#ffffff;fontSize=13;spacingTop=2;image;image=img/lib/ibm/infrastructure/dashboard.svg;labelPosition=center;verticalLabelPosition=bottom;verticalAlign=top;spacingRight=0;spacingLeft=62;" vertex="1" parent="1">
          <mxGeometry x="770" y="-310" width="60" height="60" as="geometry" />
        </mxCell>
        <mxCell id="oc2KEHiFoT-k8S5DnZOh-67" style="edgeStyle=orthogonalEdgeStyle;rounded=0;orthogonalLoop=1;jettySize=auto;html=1;startArrow=classic;startFill=1;endArrow=open;endFill=0;strokeColor=#808080;strokeWidth=2;exitX=0.65;exitY=0.5;exitDx=0;exitDy=0;exitPerimeter=0;entryX=0.5;entryY=1;entryDx=0;entryDy=0;entryPerimeter=0;" edge="1" parent="1" source="oc2KEHiFoT-k8S5DnZOh-40" target="oc2KEHiFoT-k8S5DnZOh-43">
          <mxGeometry relative="1" as="geometry">
            <Array as="points">
              <mxPoint x="790" y="-380" />
              <mxPoint x="790" y="-381" />
              <mxPoint x="1039" y="-381" />
            </Array>
            <mxPoint x="790" y="-333.5" as="sourcePoint" />
            <mxPoint x="1091.75" y="-381" as="targetPoint" />
          </mxGeometry>
        </mxCell>
        <mxCell id="oc2KEHiFoT-k8S5DnZOh-68" value="Command and Control" style="edgeLabel;html=1;align=center;verticalAlign=middle;resizable=0;points=[];" vertex="1" connectable="0" parent="oc2KEHiFoT-k8S5DnZOh-67">
          <mxGeometry x="0.6019" y="1" relative="1" as="geometry">
            <mxPoint x="-37" y="17" as="offset" />
          </mxGeometry>
        </mxCell>
        <mxCell id="oc2KEHiFoT-k8S5DnZOh-69" style="edgeStyle=orthogonalEdgeStyle;rounded=0;orthogonalLoop=1;jettySize=auto;html=1;startArrow=classic;startFill=1;endArrow=open;endFill=0;strokeColor=#808080;strokeWidth=2;exitX=1;exitY=0.5;exitDx=0;exitDy=0;exitPerimeter=0;entryX=0.5;entryY=0;entryDx=0;entryDy=0;entryPerimeter=0;" edge="1" parent="1" source="oc2KEHiFoT-k8S5DnZOh-43" target="oc2KEHiFoT-k8S5DnZOh-11">
          <mxGeometry relative="1" as="geometry">
            <Array as="points">
              <mxPoint x="1100" y="-463" />
              <mxPoint x="1100" y="-680" />
              <mxPoint x="582" y="-680" />
            </Array>
            <mxPoint x="1080" y="-482" as="sourcePoint" />
            <mxPoint x="1401.75" y="-502" as="targetPoint" />
          </mxGeometry>
        </mxCell>
        <mxCell id="oc2KEHiFoT-k8S5DnZOh-70" value="Publish Command" style="edgeLabel;html=1;align=center;verticalAlign=bottom;resizable=0;points=[];labelPosition=center;verticalLabelPosition=top;spacingBottom=23;" vertex="1" connectable="0" parent="oc2KEHiFoT-k8S5DnZOh-69">
          <mxGeometry x="0.6019" y="1" relative="1" as="geometry">
            <mxPoint x="-37" y="17" as="offset" />
          </mxGeometry>
        </mxCell>
      </root>
    </mxGraphModel>
  </diagram>
</mxfile>
